REM MD5 7e27be0c29f20fd748b61337133841c7
FILE "Euro Demo 31 (France).bin" BINARY
  TRACK 01 MODE2/2352
    INDEX 01 00:00:00
  TRACK 02 AUDIO
    INDEX 00 29:23:56
    INDEX 01 29:25:56
  TRACK 03 AUDIO
    INDEX 00 30:22:36
    INDEX 01 30:24:36
  TRACK 04 AUDIO
    INDEX 00 31:57:39
    INDEX 01 31:59:39
REM LEADOUT 35:00:71
